HIERARCHY
ROOT Hips
{
	OFFSET 0.000000 0.000000 0.000000 
	CHANNELS 6 Xposition Yposition Zposition Yrotation Zrotation Xrotation 
	JOINT Lumbar
	{
		OFFSET 0.000000 0.000000 0.000000 
		CHANNELS 3 Zrotation Xrotation Yrotation
		JOINT Neck
		{
			OFFSET 0.000000 0.445665 0.000000 
			CHANNELS 3 Zrotation Xrotation Yrotation
			End Site
			{
				OFFSET 0.000000 0.227535 0.000000 
			}
		}
		JOINT RightShoulder
		{
			OFFSET 0.019635 0.377685 0.194865 
			CHANNELS 3 Zrotation Xrotation Yrotation
			JOINT RightElbow
			{
				OFFSET 0.000000 -0.243375 0.000000 
				CHANNELS 2 Zrotation Yrotation
				JOINT RightWrist
				{
					OFFSET 0.000000 -0.264825 0.000000 
					CHANNELS 2 Zrotation Xrotation
					End Site
					{
						OFFSET 0.006600 -0.176220 0.000990 
					}
				}
			}
		}
		JOINT LeftShoulder
		{
			OFFSET 0.019635 0.377685 -0.194865 
			CHANNELS 3 Zrotation Xrotation Yrotation
			JOINT LeftElbow
			{
				OFFSET 0.000000 -0.243375 0.000000 
				CHANNELS 2 Zrotation Yrotation
				JOINT LeftWrist
				{
					OFFSET 0.000000 -0.264825 0.000000 
					CHANNELS 2 Zrotation Xrotation
					End Site
					{
						OFFSET 0.006600 -0.176220 -0.000990 
					}
				}
			}
		}
	}
	JOINT RightHip
	{
		OFFSET 0.052140 -0.069960 0.075570 
		CHANNELS 3 Zrotation Xrotation Yrotation
		JOINT RightKnee
		{
			OFFSET 0.000000 -0.402270 0.000000 
			CHANNELS 1 Zrotation
			JOINT RightAnkle
			{
				OFFSET 0.000000 -0.404085 0.000000 
				CHANNELS 3 Zrotation Xrotation Yrotation
				End Site
				{
					OFFSET 0.204105 -0.089430 0.008415 
				}
			}
		}
	}
	JOINT LeftHip
	{
		OFFSET 0.052140 -0.069960 -0.075570 
		CHANNELS 3 Zrotation Xrotation Yrotation
		JOINT LeftKnee
		{
			OFFSET 0.000000 -0.402270 0.000000 
			CHANNELS 1 Zrotation
			JOINT LeftAnkle
			{
				OFFSET 0.000000 -0.404085 0.000000 
				CHANNELS 3 Zrotation Xrotation Yrotation
				End Site
				{
					OFFSET 0.204105 -0.089430 -0.008415 
				}
			}
		}
	}
}
MOTION
Frames: 11
Frame Time: 0.02
0 0.95578 0 179.13659 0 3.43736 8.45001 -1.80141 -2.81401 -29.16212 2.33259 3.35755 20.77168 -13.12374 2.17885 9.73646 81.25286 -0.53425 1.15192 22.89552 4.73377 -6.10537 7.74267 -74.59995 -5.69915 -0.25502 1.3992 4.99475 25.00974 -22.02756 19.68588 -14.72545 -3.88293 0.07037 -4.8647 -18.43522 -18.3348 10.36808 7.1718 9.06406
-0.00025 0.95587 -0.00035 179.27903 0 3.45138 8.45739 -1.78984 -2.79949 -29.1372 2.30047 3.35208 20.75148 -13.1373 2.19696 9.73406 81.30205 -0.52215 1.16834 22.89687 4.7481 -6.00149 7.74795 -74.69124 -5.73537 -0.24661 1.3752 4.9668 24.77805 -21.99074 19.68894 -14.38759 -3.75367 0.08723 -4.81825 -18.31342 -18.3328 10.39363 7.06501 8.80905
-0.00051 0.95596 -0.0007 179.42204 0 3.46582 8.46523 -1.77883 -2.78458 -29.11307 2.2676 3.34588 20.73169 -13.14923 2.21423 9.73165 81.35087 -0.5101 1.1845 22.89887 4.76392 -5.90053 7.75415 -74.78265 -5.7717 -0.23749 1.35132 4.93856 24.54543 -21.9541 19.692 -14.04981 -3.62459 0.10384 -4.77166 -18.19018 -18.3297 10.41876 6.95621 8.55156
-0.00076 0.95606 -0.00106 179.56383 0 3.48176 8.47442 -1.76991 -2.76857 -29.09118 2.23402 3.33881 20.71376 -13.15823 2.23069 9.72952 81.39843 -0.49839 1.19995 22.90227 4.78234 -5.80503 7.76269 -74.87501 -5.80799 -0.22635 1.32753 4.90942 24.31289 -21.91789 19.69503 -13.71003 -3.49518 0.11774 -4.72337 -18.05587 -18.32023 10.44266 6.83909 8.28238
-0.001 0.95613 -0.00139 179.7061 0 3.4894 8.47577 -1.74987 -2.75913 -29.05659 2.20737 3.33889 20.68649 -13.18691 2.25437 9.72632 81.45235 -0.4852 1.21935 22.89673 4.78277 -5.67434 7.75717 -74.96185 -5.84349 -0.22698 1.30309 4.88564 24.08726 -21.87945 19.69817 -13.38182 -3.36766 0.14367 -4.68328 -17.97515 -18.34211 10.47336 6.76698 8.07602
-0.00128 0.95626 -0.00178 179.85132 0 3.51484 8.49413 -1.75338 -2.7353 -29.04948 2.16395 3.32213 20.67865 -13.17112 2.26078 9.72514 81.49297 -0.47494 1.23025 22.91113 4.8241 -5.62247 7.7825 -75.06062 -5.88131 -0.20199 1.2802 4.85014 23.84224 -21.84573 19.70109 -13.02884 -3.23618 0.14572 -4.62645 -17.78461 -18.2993 10.48947 6.59912 7.7364
-0.00166 0.95657 -0.00238 179.97633 0 3.58978 8.5582 -1.82447 -2.67357 -29.11644 2.08871 3.271 20.72922 -13.05081 2.23346 9.73159 81.49491 -0.47446 1.21817 22.97525 4.96024 -5.75823 7.88781 -75.19336 -5.92111 -0.10924 1.25997 4.78375 23.57654 -21.82527 19.70342 -12.60394 -3.09201 0.06647 -4.51567 -17.24638 -18.05646 10.46578 6.15723 7.01025
-0.00207 0.95695 -0.00305 180.11087 0 3.68276 8.63967 -1.91898 -2.59677 -29.21183 1.99352 3.2006 20.79865 -12.88185 2.18553 9.73954 81.48384 -0.47655 1.19747 23.06107 5.14145 -5.97875 8.02537 -75.33802 -5.96414 0.00997 1.24166 4.70521 23.28472 -21.80965 19.70553 -12.15666 -2.94497 -0.03379 -4.38948 -16.60559 -17.75216 10.42726 5.61983 6.15193
-0.00245 0.9573 -0.00367 180.25818 0 3.76728 8.71417 -2.00115 -2.52578 -29.29512 1.89829 3.13102 20.85638 -12.72339 2.13858 9.74571 81.47993 -0.47646 1.18024 23.13983 5.31367 -6.18082 8.15171 -75.47684 -6.0086 0.11924 1.2234 4.63119 22.98336 -21.79146 19.70776 -11.71818 -2.79895 -0.11507 -4.27496 -16.03899 -17.48931 10.39518 5.13195 5.36549
-0.00291 0.95767 -0.00436 180.32846 0 3.85267 8.785 -2.09028 -2.45977 -29.37375 1.84267 3.09484 20.92706 -12.61495 2.1293 9.75726 81.47051 -0.48096 1.16454 23.2046 5.4362 -6.30012 8.26347 -75.61778 -6.04074 0.21995 1.20092 4.56137 22.77321 -21.77425 19.70995 -11.27539 -2.65017 -0.23776 -4.13994 -15.35302 -17.16861 10.36434 4.61879 4.53024
-0.0032 0.958 -0.00492 180.56749 0 3.94084 8.86723 -2.17069 -2.37908 -29.47033 1.69836 2.98467 20.97554 -12.38949 2.03381 9.75703 81.46978 -0.47614 1.14407 23.30639 5.67439 -6.60949 8.41336 -75.75672 -6.09943 0.34443 1.18813 4.47998 22.36587 -21.7569 19.71208 -10.849 -2.51148 -0.27719 -4.04498 -14.89509 -16.95483 10.32743 4.13497 3.76403
